# Blender 4.3.2
# www.blender.org
mtllib torch_tip.mtl
o tip
v -0.034344 0.034133 0.003746
v -0.028773 -0.034133 -0.020629
v -0.005449 -0.034133 -0.034115
v -0.020903 0.034133 -0.031048
v 0.022311 0.034133 -0.027490
v 0.020629 -0.034133 -0.028773
v 0.034116 -0.034133 -0.005449
v 0.034344 0.034133 -0.003746
v 0.028773 -0.034133 0.020629
v -0.011970 -0.034133 0.035463
v 0.020903 0.034133 0.031048
v -0.022311 0.034133 0.027490
v -0.034116 -0.034133 0.005449
vn -0.4992 -0.0742 -0.8633
vn 0.3403 -0.1034 0.9346
vn -0.0000 -1.0000 -0.0000
vn 0.1273 0.0444 -0.9909
vn 0.8791 -0.0019 -0.4766
vn 0.9552 0.0273 0.2948
vn -0.8436 -0.0273 0.5363
vn -0.9552 0.0273 -0.2948
vn -0.0816 0.1034 0.9913
vn -0.0000 1.0000 -0.0000
vt 0.824145 1.000000
vt 0.753903 0.500000
vt 0.880190 0.500000
vt 0.324145 1.000000
vt 0.175855 0.500000
vt 0.380190 0.500000
vt 0.755848 0.012924
vt 0.592355 0.081624
vt 0.556265 0.347296
vt 0.744152 0.487077
vt 0.907645 0.418376
vt 0.987076 0.255848
vt 0.918376 0.092355
vt 0.630190 0.500000
vt 0.619810 1.000000
vt 0.503903 0.500000
vt 0.496097 1.000000
vt 0.011857 0.500000
vt 0.119810 1.000000
vt 0.012817 1.000000
vt 0.987183 0.500000
vt 0.988143 1.000000
vt 0.407645 0.081624
vt 0.443735 0.347296
vt 0.255848 0.487077
vt 0.092355 0.418376
vt 0.056265 0.152704
vt 0.244152 0.012924
s 0
usemtl tip_material
f 4/1/1 3/2/1 2/3/1
f 11/4/2 10/5/2 9/6/2
f 7/7/3 9/8/3 10/9/3 13/10/3 2/11/3 3/12/3 6/13/3
f 6/14/4 3/2/4 4/1/4 5/15/4
f 7/16/5 6/14/5 5/15/5 8/17/5
f 9/6/6 7/16/6 8/17/6 11/4/6
f 13/18/7 10/5/7 12/19/7 1/20/7
f 2/3/8 13/21/8 1/22/8 4/1/8
f 11/4/9 12/19/9 10/5/9
f 5/23/10 4/24/10 1/25/10 12/26/10 11/27/10 8/28/10
